<mxfile host="app.diagrams.net" modified="2024-05-22T13:13:48.306Z" agent="Mozilla/5.0 (Windows NT 10.0; Win64; x64) AppleWebKit/537.36 (KHTML, like Gecko) Chrome/125.0.0.0 Safari/537.36" etag="s37Xrn_Hb4Ki4nBGeR_o" version="24.4.4" type="github">
  <diagram name="PÃ¡gina-1" id="Sgn7wKPMUYQzbpnPL_LR">
    <mxGraphModel dx="2074" dy="746" grid="1" gridSize="10" guides="1" tooltips="1" connect="1" arrows="1" fold="1" page="1" pageScale="1" pageWidth="827" pageHeight="1169" math="0" shadow="0">
      <root>
        <mxCell id="0" />
        <mxCell id="1" parent="0" />
        <mxCell id="zrYbx3LbngJmdOw59S41-109" value="" style="rounded=0;whiteSpace=wrap;html=1;rotation=0;fillColor=#f1f2f4;" vertex="1" parent="1">
          <mxGeometry x="30" y="230" width="1110" height="2010" as="geometry" />
        </mxCell>
        <mxCell id="zrYbx3LbngJmdOw59S41-51" value="" style="rounded=0;whiteSpace=wrap;html=1;" vertex="1" parent="1">
          <mxGeometry x="1260" y="555" width="120" height="60" as="geometry" />
        </mxCell>
        <mxCell id="zrYbx3LbngJmdOw59S41-52" value="" style="rounded=0;whiteSpace=wrap;html=1;fillColor=#002244;" vertex="1" parent="1">
          <mxGeometry x="30" y="290" width="1110" height="110" as="geometry" />
        </mxCell>
        <mxCell id="zrYbx3LbngJmdOw59S41-53" value="Presidente FC" style="text;html=1;align=center;verticalAlign=middle;whiteSpace=wrap;rounded=0;fontColor=#ffcd00;fontSize=48;fontStyle=1" vertex="1" parent="1">
          <mxGeometry x="60" y="330" width="330" height="30" as="geometry" />
        </mxCell>
        <mxCell id="zrYbx3LbngJmdOw59S41-54" value="&lt;font style=&quot;font-size: 17px;&quot;&gt;Everton&lt;/font&gt;" style="text;html=1;align=center;verticalAlign=middle;whiteSpace=wrap;rounded=0;fontColor=#ffcd00;fontSize=48;fontStyle=1" vertex="1" parent="1">
          <mxGeometry x="1010" y="330" width="100" height="30" as="geometry" />
        </mxCell>
        <mxCell id="zrYbx3LbngJmdOw59S41-58" value="&lt;font data-darkreader-inline-color=&quot;&quot; color=&quot;#002244&quot; style=&quot;font-size: 15px; --darkreader-inline-color: #d3cfc9;&quot;&gt;Nome completo&lt;/font&gt;" style="text;html=1;align=center;verticalAlign=middle;whiteSpace=wrap;rounded=0;fontColor=#ffcd00;fontSize=48;fontStyle=1" vertex="1" parent="1">
          <mxGeometry x="309" y="585" width="210" height="30" as="geometry" />
        </mxCell>
        <mxCell id="zrYbx3LbngJmdOw59S41-60" value="&lt;font data-darkreader-inline-color=&quot;&quot; color=&quot;#002244&quot; style=&quot;font-size: 15px; --darkreader-inline-color: #d3cfc9;&quot;&gt;CPF&lt;/font&gt;" style="text;html=1;align=center;verticalAlign=middle;whiteSpace=wrap;rounded=0;fontColor=#ffcd00;fontSize=48;fontStyle=1" vertex="1" parent="1">
          <mxGeometry x="284" y="820" width="180" height="30" as="geometry" />
        </mxCell>
        <mxCell id="zrYbx3LbngJmdOw59S41-61" value="&lt;font data-darkreader-inline-color=&quot;&quot; color=&quot;#002244&quot; style=&quot;font-size: 15px; --darkreader-inline-color: #d3cfc9;&quot;&gt;E-mail&lt;/font&gt;" style="text;html=1;align=center;verticalAlign=middle;whiteSpace=wrap;rounded=0;fontColor=#ffcd00;fontSize=48;fontStyle=1" vertex="1" parent="1">
          <mxGeometry x="300" y="700" width="160" height="30" as="geometry" />
        </mxCell>
        <mxCell id="zrYbx3LbngJmdOw59S41-63" value="&lt;font data-darkreader-inline-color=&quot;&quot; color=&quot;#002244&quot; style=&quot;--darkreader-inline-color: #d3cfc9; font-size: 20px;&quot;&gt;Complete seu cadastro antes de ir para forma de pagamento&lt;/font&gt;" style="text;html=1;align=center;verticalAlign=middle;whiteSpace=wrap;rounded=0;fontColor=#ffcd00;fontSize=48;fontStyle=1" vertex="1" parent="1">
          <mxGeometry x="373.5" y="470" width="423" height="30" as="geometry" />
        </mxCell>
        <mxCell id="zrYbx3LbngJmdOw59S41-73" value="&lt;font data-darkreader-inline-color=&quot;&quot; color=&quot;#002244&quot; style=&quot;font-size: 15px; --darkreader-inline-color: #d3cfc9;&quot;&gt;Cidade&lt;/font&gt;" style="text;html=1;align=center;verticalAlign=middle;whiteSpace=wrap;rounded=0;fontColor=#ffcd00;fontSize=48;fontStyle=1" vertex="1" parent="1">
          <mxGeometry x="290" y="1450" width="190" height="30" as="geometry" />
        </mxCell>
        <mxCell id="zrYbx3LbngJmdOw59S41-74" value="&lt;font data-darkreader-inline-color=&quot;&quot; color=&quot;#002244&quot; style=&quot;font-size: 15px; --darkreader-inline-color: #d3cfc9;&quot;&gt;Data de nascimento&lt;/font&gt;" style="text;html=1;align=center;verticalAlign=middle;whiteSpace=wrap;rounded=0;fontColor=#ffcd00;fontSize=48;fontStyle=1" vertex="1" parent="1">
          <mxGeometry x="350" y="950" width="160" height="30" as="geometry" />
        </mxCell>
        <mxCell id="zrYbx3LbngJmdOw59S41-75" value="&lt;font data-darkreader-inline-color=&quot;&quot; color=&quot;#002244&quot; style=&quot;font-size: 15px; --darkreader-inline-color: #d3cfc9;&quot;&gt;Estado&lt;/font&gt;" style="text;html=1;align=center;verticalAlign=middle;whiteSpace=wrap;rounded=0;fontColor=#ffcd00;fontSize=48;fontStyle=1" vertex="1" parent="1">
          <mxGeometry x="319" y="1330" width="140" height="30" as="geometry" />
        </mxCell>
        <mxCell id="zrYbx3LbngJmdOw59S41-76" value="&lt;font data-darkreader-inline-color=&quot;&quot; color=&quot;#002244&quot; style=&quot;font-size: 15px; --darkreader-inline-color: #d3cfc9;&quot;&gt;Celular (Opcional)&lt;/font&gt;" style="text;html=1;align=center;verticalAlign=middle;whiteSpace=wrap;rounded=0;fontColor=#ffcd00;fontSize=48;fontStyle=1" vertex="1" parent="1">
          <mxGeometry x="350" y="1090" width="150" height="30" as="geometry" />
        </mxCell>
        <mxCell id="zrYbx3LbngJmdOw59S41-77" value="&lt;font data-darkreader-inline-color=&quot;&quot; color=&quot;#002244&quot; style=&quot;font-size: 15px; --darkreader-inline-color: #d3cfc9;&quot;&gt;CEP&lt;/font&gt;" style="text;html=1;align=center;verticalAlign=middle;whiteSpace=wrap;rounded=0;fontColor=#ffcd00;fontSize=48;fontStyle=1" vertex="1" parent="1">
          <mxGeometry x="330" y="1210" width="100" height="30" as="geometry" />
        </mxCell>
        <mxCell id="zrYbx3LbngJmdOw59S41-78" value="&lt;font data-darkreader-inline-color=&quot;&quot; color=&quot;#002244&quot; style=&quot;font-size: 15px; --darkreader-inline-color: #d3cfc9;&quot;&gt;Bairro (Opcional)&lt;/font&gt;&lt;span data-darkreader-inline-color=&quot;&quot; style=&quot;color: rgb(232, 230, 227); font-family: monospace; font-size: 0px; font-weight: 400; text-align: start; text-wrap: nowrap; --darkreader-inline-color: #d8d4cf;&quot;&gt;%3CmxGraphModel%3E%3Croot%3E%3CmxCell%20id%3D%220%22%2F%3E%3CmxCell%20id%3D%221%22%20parent%3D%220%22%2F%3E%3CmxCell%20id%3D%222%22%20value%3D%22%22%20style%3D%22rounded%3D0%3BwhiteSpace%3Dwrap%3Bhtml%3D1%3B%22%20vertex%3D%221%22%20parent%3D%221%22%3E%3CmxGeometry%20x%3D%22360%22%20y%3D%221860%22%20width%3D%22450%22%20height%3D%2240%22%20as%3D%22geometry%22%2F%3E%3C%2FmxCell%3E%3C%2Froot%3E%3C%2FmxGraphModel%3E&lt;/span&gt;" style="text;html=1;align=center;verticalAlign=middle;whiteSpace=wrap;rounded=0;fontColor=#ffcd00;fontSize=48;fontStyle=1" vertex="1" parent="1">
          <mxGeometry x="350" y="1570" width="150" height="30" as="geometry" />
        </mxCell>
        <mxCell id="zrYbx3LbngJmdOw59S41-112" value="" style="rounded=0;whiteSpace=wrap;html=1;" vertex="1" parent="1">
          <mxGeometry x="360" y="630" width="450" height="40" as="geometry" />
        </mxCell>
        <mxCell id="zrYbx3LbngJmdOw59S41-113" value="" style="rounded=0;whiteSpace=wrap;html=1;" vertex="1" parent="1">
          <mxGeometry x="360" y="740" width="450" height="40" as="geometry" />
        </mxCell>
        <mxCell id="zrYbx3LbngJmdOw59S41-114" value="" style="rounded=0;whiteSpace=wrap;html=1;" vertex="1" parent="1">
          <mxGeometry x="360" y="860" width="450" height="40" as="geometry" />
        </mxCell>
        <mxCell id="zrYbx3LbngJmdOw59S41-115" value="" style="rounded=0;whiteSpace=wrap;html=1;" vertex="1" parent="1">
          <mxGeometry x="360" y="1490" width="450" height="40" as="geometry" />
        </mxCell>
        <mxCell id="zrYbx3LbngJmdOw59S41-116" value="" style="rounded=0;whiteSpace=wrap;html=1;" vertex="1" parent="1">
          <mxGeometry x="360" y="1610" width="450" height="40" as="geometry" />
        </mxCell>
        <mxCell id="zrYbx3LbngJmdOw59S41-117" value="" style="rounded=0;whiteSpace=wrap;html=1;" vertex="1" parent="1">
          <mxGeometry x="360" y="1733.5" width="450" height="40" as="geometry" />
        </mxCell>
        <mxCell id="zrYbx3LbngJmdOw59S41-118" value="" style="rounded=0;whiteSpace=wrap;html=1;" vertex="1" parent="1">
          <mxGeometry x="360" y="1860" width="450" height="40" as="geometry" />
        </mxCell>
        <mxCell id="zrYbx3LbngJmdOw59S41-119" value="" style="rounded=0;whiteSpace=wrap;html=1;" vertex="1" parent="1">
          <mxGeometry x="360" y="1370" width="450" height="40" as="geometry" />
        </mxCell>
        <mxCell id="zrYbx3LbngJmdOw59S41-120" value="" style="rounded=0;whiteSpace=wrap;html=1;" vertex="1" parent="1">
          <mxGeometry x="360" y="1250" width="450" height="40" as="geometry" />
        </mxCell>
        <mxCell id="zrYbx3LbngJmdOw59S41-121" value="" style="rounded=0;whiteSpace=wrap;html=1;" vertex="1" parent="1">
          <mxGeometry x="360" y="1129" width="450" height="40" as="geometry" />
        </mxCell>
        <mxCell id="zrYbx3LbngJmdOw59S41-122" value="" style="rounded=0;whiteSpace=wrap;html=1;" vertex="1" parent="1">
          <mxGeometry x="360" y="990" width="450" height="40" as="geometry" />
        </mxCell>
        <mxCell id="zrYbx3LbngJmdOw59S41-125" value="" style="rounded=0;whiteSpace=wrap;html=1;" vertex="1" parent="1">
          <mxGeometry x="360" y="1990" width="450" height="40" as="geometry" />
        </mxCell>
        <mxCell id="zrYbx3LbngJmdOw59S41-126" value="" style="rounded=0;whiteSpace=wrap;html=1;" vertex="1" parent="1">
          <mxGeometry x="360" y="2080" width="450" height="70" as="geometry" />
        </mxCell>
        <mxCell id="zrYbx3LbngJmdOw59S41-127" value="&lt;font style=&quot;--darkreader-inline-color: #c9c4bd;&quot; data-darkreader-inline-color=&quot;&quot; color=&quot;#d3cfc9&quot;&gt;&lt;span style=&quot;font-size: 15px;&quot;&gt;EndereÃ§o (Opcional)&lt;/span&gt;&lt;/font&gt;" style="text;html=1;align=center;verticalAlign=middle;whiteSpace=wrap;rounded=0;fontColor=#ffcd00;fontSize=48;fontStyle=1" vertex="1" parent="1">
          <mxGeometry x="360" y="1690" width="150" height="30" as="geometry" />
        </mxCell>
        <mxCell id="zrYbx3LbngJmdOw59S41-128" value="&lt;font style=&quot;--darkreader-inline-color: #c9c4bd;&quot; data-darkreader-inline-color=&quot;&quot; color=&quot;#d3cfc9&quot;&gt;&lt;span style=&quot;font-size: 15px;&quot;&gt;NÃºmero (Opcional)&lt;/span&gt;&lt;/font&gt;&lt;span data-darkreader-inline-color=&quot;&quot; style=&quot;color: rgb(232, 230, 227); font-family: monospace; font-size: 0px; font-weight: 400; text-align: start; text-wrap: nowrap; --darkreader-inline-color: #d8d4cf;&quot;&gt;%3CmxGraphModel%3E%3Croot%3E%3CmxCell%20id%3D%220%22%2F%3E%3CmxCell%20id%3D%221%22%20parent%3D%220%22%2F%3E%3CmxCell%20id%3D%222%22%20value%3D%22%26lt%3Bfont%20data-darkreader-inline-color%3D%26quot%3B%26quot%3B%20color%3D%26quot%3B%23002244%26quot%3B%20style%3D%26quot%3Bfont-size%3A%2015px%3B%20--darkreader-inline-color%3A%20%23d3cfc9%3B%26quot%3B%26gt%3BBairro%26lt%3B%2Ffont%26gt%3B%26lt%3Bspan%20data-darkreader-inline-color%3D%26quot%3B%26quot%3B%20style%3D%26quot%3Bcolor%3A%20rgb(232%2C%20230%2C%20227)%3B%20font-family%3A%20monospace%3B%20font-size%3A%200px%3B%20font-weight%3A%20400%3B%20text-align%3A%20start%3B%20text-wrap%3A%20nowrap%3B%20--darkreader-inline-color%3A%20%23d8d4cf%3B%26quot%3B%26gt%3B%253CmxGraphModel%253E%253Croot%253E%253CmxCell%2520id%253D%25220%2522%252F%253E%253CmxCell%2520id%253D%25221%2522%2520parent%253D%25220%2522%252F%253E%253CmxCell%2520id%253D%25222%2522%2520value%253D%2522%2522%2520style%253D%2522rounded%253D0%253BwhiteSpace%253Dwrap%253Bhtml%253D1%253B%2522%2520vertex%253D%25221%2522%2520parent%253D%25221%2522%253E%253CmxGeometry%2520x%253D%2522360%2522%2520y%253D%25221860%2522%2520width%253D%2522450%2522%2520height%253D%252240%2522%2520as%253D%2522geometry%2522%252F%253E%253C%252FmxCell%253E%253C%252Froot%253E%253C%252FmxGraphModel%253E%26lt%3B%2Fspan%26gt%3B%22%20style%3D%22text%3Bhtml%3D1%3Balign%3Dcenter%3BverticalAlign%3Dmiddle%3BwhiteSpace%3Dwrap%3Brounded%3D0%3BfontColor%3D%23ffcd00%3BfontSize%3D48%3BfontStyle%3D1%22%20vertex%3D%221%22%20parent%3D%221%22%3E%3CmxGeometry%20x%3D%22100%22%20y%3D%221150%22%20width%3D%22150%22%20height%3D%2230%22%20as%3D%22geometry%22%2F%3E%3C%2FmxCell%3E%3C%2Froot%3E%3C%2FmxGraphModel%3E&lt;/span&gt;" style="text;html=1;align=center;verticalAlign=middle;whiteSpace=wrap;rounded=0;fontColor=#ffcd00;fontSize=48;fontStyle=1" vertex="1" parent="1">
          <mxGeometry x="355" y="1820" width="150" height="30" as="geometry" />
        </mxCell>
        <mxCell id="zrYbx3LbngJmdOw59S41-129" value="&lt;font style=&quot;--darkreader-inline-color: #c2bdb5;&quot; data-darkreader-inline-color=&quot;&quot; color=&quot;#c9c4bd&quot;&gt;&lt;span style=&quot;font-size: 15px;&quot;&gt;Complemento (opcional)&lt;/span&gt;&lt;/font&gt;" style="text;html=1;align=center;verticalAlign=middle;whiteSpace=wrap;rounded=0;fontColor=#ffcd00;fontSize=48;fontStyle=1" vertex="1" parent="1">
          <mxGeometry x="360" y="1950" width="190" height="30" as="geometry" />
        </mxCell>
        <mxCell id="zrYbx3LbngJmdOw59S41-132" style="edgeStyle=orthogonalEdgeStyle;rounded=0;orthogonalLoop=1;jettySize=auto;html=1;exitX=0.5;exitY=1;exitDx=0;exitDy=0;" edge="1" parent="1" source="zrYbx3LbngJmdOw59S41-75" target="zrYbx3LbngJmdOw59S41-75">
          <mxGeometry relative="1" as="geometry" />
        </mxCell>
        <mxCell id="zrYbx3LbngJmdOw59S41-133" value="&lt;font style=&quot;--darkreader-inline-color: #c2bdb5;&quot; data-darkreader-inline-color=&quot;&quot; color=&quot;#c9c4bd&quot;&gt;&lt;span style=&quot;font-size: 15px;&quot;&gt;IR PARA PAGAMENTO&lt;/span&gt;&lt;/font&gt;" style="text;html=1;align=center;verticalAlign=middle;whiteSpace=wrap;rounded=0;fontColor=#ffcd00;fontSize=48;fontStyle=1" vertex="1" parent="1">
          <mxGeometry x="480" y="2090" width="221" height="30" as="geometry" />
        </mxCell>
      </root>
    </mxGraphModel>
  </diagram>
</mxfile>
